{"glyphs":{"0":{"ha":780,"x_min":68,"x_max":712,"o":"m 712 237 q 475 0 712 0 l 305 0 q 68 237 68 0 l 68 712 q 305 949 68 949 l 475 949 q 712 712 712 949 l 712 237 m 576 536 l 203 271 l 203 237 q 305 136 203 136 l 475 136 q 576 237 576 136 l 576 536 m 203 414 l 576 678 l 576 712 q 475 814 576 814 l 305 814 q 203 712 203 814 l 203 414 z "},"1":{"ha":339,"x_min":68,"x_max":271,"o":"m 136 814 l 68 814 l 68 949 l 271 949 l 271 0 l 136 0 l 136 814 z "},"2":{"ha":746,"x_min":68,"x_max":678,"o":"m 68 0 l 68 305 q 305 543 68 543 l 441 543 q 543 644 543 543 l 543 712 q 441 814 543 814 l 68 814 l 68 949 l 441 949 q 678 712 678 949 l 678 644 q 441 407 678 407 l 305 407 q 203 305 203 407 l 203 136 l 678 136 l 678 0 l 68 0 z "},"3":{"ha":678,"x_min":68,"x_max":610,"o":"m 68 543 l 373 543 q 475 644 475 543 l 475 712 q 373 814 475 814 l 68 814 l 68 949 l 373 949 q 610 712 610 949 l 610 644 q 495 475 610 495 q 610 305 610 454 l 610 237 q 373 0 610 0 l 68 0 l 68 136 l 373 136 q 475 237 475 136 l 475 305 q 373 407 475 407 l 68 407 l 68 543 z "},"4":{"ha":746,"x_min":68,"x_max":678,"o":"m 264 949 l 407 949 l 210 475 l 543 475 l 543 949 l 678 949 l 678 0 l 543 0 l 543 339 l 68 339 l 68 475 l 264 949 z "},"5":{"ha":712,"x_min":68,"x_max":644,"o":"m 68 0 l 68 136 l 407 136 q 509 237 509 136 l 509 305 q 407 407 509 407 l 68 407 l 68 949 l 644 949 l 644 814 l 203 814 l 203 543 l 407 543 q 644 305 644 543 l 644 237 q 407 0 644 0 l 68 0 z "},"6":{"ha":746,"x_min":68,"x_max":678,"o":"m 203 543 l 441 543 q 678 305 678 543 l 678 237 q 441 0 678 0 l 312 0 q 68 237 68 0 l 68 644 q 373 949 68 949 l 610 949 l 610 814 l 373 814 q 203 644 203 814 l 203 543 m 203 407 l 203 237 q 312 136 203 136 l 441 136 q 543 237 543 136 l 543 305 q 441 407 543 407 l 203 407 z "},"7":{"ha":746,"x_min":68,"x_max":678,"o":"m 678 949 l 678 814 l 278 0 l 136 0 l 536 814 l 68 814 l 68 949 l 678 949 z "},"8":{"ha":746,"x_min":68,"x_max":678,"o":"m 68 712 q 305 949 68 949 l 441 949 q 678 712 678 949 l 678 644 q 563 475 678 495 q 678 305 678 454 l 678 237 q 441 0 678 0 l 305 0 q 68 237 68 0 l 68 305 q 183 475 68 454 q 68 644 68 495 l 68 712 m 441 543 q 543 644 543 543 l 543 712 q 441 814 543 814 l 305 814 q 203 712 203 814 l 203 644 q 305 543 203 543 l 441 543 m 305 407 q 203 305 203 407 l 203 237 q 305 136 203 136 l 441 136 q 543 237 543 136 l 543 305 q 441 407 543 407 l 305 407 z "},"9":{"ha":746,"x_min":68,"x_max":678,"o":"m 543 407 l 305 407 q 68 644 68 407 l 68 712 q 305 949 68 949 l 434 949 q 678 712 678 949 l 678 305 q 373 0 678 0 l 136 0 l 136 136 l 373 136 q 543 305 543 136 l 543 407 m 543 543 l 543 712 q 434 814 543 814 l 305 814 q 203 712 203 814 l 203 644 q 305 543 203 543 l 543 543 z "}," ":{"ha":271,"x_min":0,"x_max":0,"o":""},"!":{"ha":271,"x_min":68,"x_max":203,"o":"m 68 271 l 68 949 l 203 949 l 203 271 l 68 271 m 68 0 l 68 136 l 203 136 l 203 0 l 68 0 z "},"\"":{"ha":543,"x_min":68,"x_max":475,"o":"m 271 949 l 203 746 l 68 746 l 136 949 l 271 949 m 475 949 l 407 746 l 271 746 l 339 949 l 475 949 z "},"#":{"ha":949,"x_min":68,"x_max":882,"o":"m 315 712 l 387 949 l 522 949 l 451 712 l 654 712 l 726 949 l 861 949 l 790 712 l 882 712 l 882 576 l 749 576 l 688 373 l 814 373 l 814 237 l 648 237 l 576 0 l 441 0 l 512 237 l 309 237 l 237 0 l 102 0 l 173 237 l 68 237 l 68 373 l 214 373 l 275 576 l 136 576 l 136 712 l 315 712 m 349 373 l 553 373 l 614 576 l 410 576 l 349 373 z "},"$":{"ha":746,"x_min":68,"x_max":678,"o":"m 407 0 l 407 -136 l 339 -136 l 339 0 l 68 0 l 68 136 l 339 136 l 339 407 l 305 407 q 68 644 68 407 l 68 712 q 305 949 68 949 l 339 949 l 339 1085 l 407 1085 l 407 949 l 678 949 l 678 814 l 407 814 l 407 543 l 441 543 q 678 305 678 543 l 678 237 q 441 0 678 0 l 407 0 m 203 644 q 305 543 203 543 l 339 543 l 339 814 l 305 814 q 203 712 203 814 l 203 644 m 407 407 l 407 136 l 441 136 q 543 237 543 136 l 543 305 q 441 407 543 407 l 407 407 z "},"%":{"ha":1289,"x_min":68,"x_max":1221,"o":"m 305 407 q 68 644 68 407 l 68 712 q 305 949 68 949 q 543 712 543 949 l 543 644 q 305 407 543 407 m 1221 237 q 983 0 1221 0 q 746 237 746 0 l 746 305 q 983 543 746 543 q 1221 305 1221 543 l 1221 237 m 203 644 q 305 543 203 543 q 407 644 407 543 l 407 712 q 305 814 407 814 q 203 712 203 814 l 203 644 m 882 237 q 983 136 882 136 q 1085 237 1085 136 l 1085 305 q 983 407 1085 407 q 882 305 882 407 l 882 237 m 339 0 l 807 949 l 949 949 l 481 0 l 339 0 z "},"&":{"ha":746,"x_min":68,"x_max":678,"o":"m 305 0 q 68 237 68 0 l 68 305 q 183 475 68 454 q 68 644 68 495 l 68 712 q 305 949 68 949 l 610 949 l 610 814 l 305 814 q 203 712 203 814 l 203 644 q 305 543 203 543 l 475 543 l 475 644 l 610 644 l 610 543 l 678 543 l 678 407 l 610 407 l 610 0 l 305 0 m 203 237 q 305 136 203 136 l 475 136 l 475 407 l 305 407 q 203 305 203 407 l 203 237 z "},"'":{"ha":339,"x_min":68,"x_max":271,"o":"m 271 949 l 203 746 l 68 746 l 136 949 l 271 949 z "},"(":{"ha":475,"x_min":68,"x_max":407,"o":"m 258 -136 q 68 475 68 136 q 258 1085 68 814 l 407 1085 q 203 475 203 814 q 407 -136 203 136 l 258 -136 z "},")":{"ha":475,"x_min":68,"x_max":407,"o":"m 68 -136 q 271 475 271 136 q 68 1085 271 814 l 217 1085 q 407 475 407 814 q 217 -136 407 136 l 68 -136 z "},"*":{"ha":490,"x_min":68,"x_max":422,"o":"m 99 635 l 178 756 l 68 767 l 76 848 l 204 835 l 204 956 l 286 956 l 286 835 l 414 848 l 422 767 l 311 756 l 391 635 l 317 602 l 245 713 l 173 602 l 99 635 z "},"+":{"ha":678,"x_min":68,"x_max":610,"o":"m 271 543 l 271 746 l 407 746 l 407 543 l 610 543 l 610 407 l 407 407 l 407 203 l 271 203 l 271 407 l 68 407 l 68 543 l 271 543 z "},",":{"ha":339,"x_min":68,"x_max":271,"o":"m 271 136 l 203 -68 l 68 -68 l 136 136 l 271 136 z "},"-":{"ha":543,"x_min":68,"x_max":475,"o":"m 475 543 l 475 407 l 68 407 l 68 543 l 475 543 z "},".":{"ha":271,"x_min":68,"x_max":203,"o":"m 68 0 l 68 136 l 203 136 l 203 0 l 68 0 z "},"/":{"ha":556,"x_min":68,"x_max":488,"o":"m 203 -136 l 68 -136 l 353 1085 l 488 1085 l 203 -136 z "},":":{"ha":271,"x_min":68,"x_max":203,"o":"m 68 0 l 68 136 l 203 136 l 203 0 l 68 0 m 68 543 l 68 678 l 203 678 l 203 543 l 68 543 z "},";":{"ha":271,"x_min":0,"x_max":203,"o":"m 68 543 l 68 678 l 203 678 l 203 543 l 68 543 m 203 136 l 136 -68 l 0 -68 l 68 136 l 203 136 z "},"<":{"ha":610,"x_min":68,"x_max":543,"o":"m 68 407 l 68 543 l 543 746 l 543 610 l 203 475 l 543 339 l 543 203 l 68 407 z "},"=":{"ha":543,"x_min":68,"x_max":475,"o":"m 475 678 l 475 543 l 68 543 l 68 678 l 475 678 m 475 407 l 475 271 l 68 271 l 68 407 l 475 407 z "},">":{"ha":610,"x_min":68,"x_max":543,"o":"m 68 203 l 68 339 l 407 475 l 68 610 l 68 746 l 543 543 l 543 407 l 68 203 z "},"?":{"ha":678,"x_min":68,"x_max":610,"o":"m 203 271 l 203 543 l 373 543 q 475 644 475 543 l 475 712 q 373 814 475 814 l 68 814 l 68 949 l 373 949 q 610 712 610 949 l 610 644 q 373 407 610 407 l 339 407 l 339 271 l 203 271 m 339 136 l 339 0 l 203 0 l 203 136 l 339 136 z "},"@":{"ha":1017,"x_min":68,"x_max":949,"o":"m 780 203 q 618 281 643 203 q 475 203 576 203 q 271 407 271 203 l 271 543 q 475 746 271 746 q 610 678 576 746 l 610 746 l 746 746 l 746 407 q 780 339 746 339 q 814 407 814 339 l 814 610 q 610 814 814 814 l 407 814 q 203 610 203 814 l 203 339 q 407 136 203 136 l 814 136 l 814 0 l 407 0 q 68 339 68 0 l 68 610 q 407 949 68 949 l 610 949 q 949 610 949 949 l 949 407 q 780 203 949 203 m 475 339 q 610 407 576 339 l 610 543 q 475 610 576 610 q 407 543 407 610 l 407 407 q 475 339 407 339 z "},"A":{"ha":746,"x_min":0,"x_max":746,"o":"m 746 0 l 610 0 l 547 203 l 199 203 l 136 0 l 0 0 l 285 949 l 461 949 l 746 0 m 240 339 l 506 339 l 373 814 l 240 339 z "},"B":{"ha":746,"x_min":68,"x_max":678,"o":"m 441 949 q 678 712 678 949 l 678 644 q 563 475 678 495 q 678 305 678 454 l 678 237 q 441 0 678 0 l 68 0 l 68 949 l 441 949 m 203 814 l 203 543 l 441 543 q 543 644 543 543 l 543 712 q 441 814 543 814 l 203 814 m 203 407 l 203 136 l 441 136 q 543 237 543 136 l 543 305 q 441 407 543 407 l 203 407 z "},"C":{"ha":678,"x_min":68,"x_max":610,"o":"m 203 237 q 305 136 203 136 l 610 136 l 610 0 l 305 0 q 68 237 68 0 l 68 712 q 305 949 68 949 l 610 949 l 610 814 l 305 814 q 203 712 203 814 l 203 237 z "},"D":{"ha":746,"x_min":68,"x_max":678,"o":"m 441 949 q 678 712 678 949 l 678 237 q 441 0 678 0 l 68 0 l 68 949 l 441 949 m 543 712 q 441 814 543 814 l 203 814 l 203 136 l 441 136 q 543 237 543 136 l 543 712 z "},"E":{"ha":678,"x_min":68,"x_max":610,"o":"m 610 543 l 610 407 l 203 407 l 203 136 l 610 136 l 610 0 l 68 0 l 68 949 l 610 949 l 610 814 l 203 814 l 203 543 l 610 543 z "},"F":{"ha":678,"x_min":68,"x_max":610,"o":"m 610 543 l 610 407 l 203 407 l 203 0 l 68 0 l 68 949 l 610 949 l 610 814 l 203 814 l 203 543 l 610 543 z "},"G":{"ha":746,"x_min":68,"x_max":678,"o":"m 203 237 q 305 136 203 136 l 441 136 q 543 237 543 136 l 543 407 l 339 407 l 339 543 l 678 543 l 678 237 q 441 0 678 0 l 305 0 q 68 237 68 0 l 68 712 q 305 949 68 949 l 678 949 l 678 814 l 305 814 q 203 712 203 814 l 203 237 z "},"H":{"ha":746,"x_min":68,"x_max":678,"o":"m 203 949 l 203 543 l 543 543 l 543 949 l 678 949 l 678 0 l 543 0 l 543 407 l 203 407 l 203 0 l 68 0 l 68 949 l 203 949 z "},"I":{"ha":271,"x_min":68,"x_max":203,"o":"m 203 949 l 203 0 l 68 0 l 68 949 l 203 949 z "},"J":{"ha":475,"x_min":68,"x_max":407,"o":"m 271 949 l 407 949 l 407 271 q 136 0 407 0 l 68 0 l 68 136 l 136 136 q 271 271 271 136 l 271 949 z "},"K":{"ha":780,"x_min":68,"x_max":746,"o":"m 68 0 l 68 949 l 203 949 l 203 488 l 576 949 l 746 949 l 373 475 l 746 0 l 576 0 l 203 461 l 203 0 l 68 0 z "},"L":{"ha":678,"x_min":68,"x_max":610,"o":"m 203 136 l 610 136 l 610 0 l 68 0 l 68 949 l 203 949 l 203 136 z "},"M":{"ha":1017,"x_min":68,"x_max":949,"o":"m 68 949 l 251 949 l 509 237 l 766 949 l 949 949 l 949 0 l 814 0 l 814 712 l 563 0 l 454 0 l 203 712 l 203 0 l 68 0 l 68 949 z "},"N":{"ha":814,"x_min":68,"x_max":746,"o":"m 203 949 l 610 271 l 610 949 l 746 949 l 746 0 l 610 0 l 203 678 l 203 0 l 68 0 l 68 949 l 203 949 z "},"O":{"ha":780,"x_min":68,"x_max":712,"o":"m 712 237 q 475 0 712 0 l 305 0 q 68 237 68 0 l 68 712 q 305 949 68 949 l 475 949 q 712 712 712 949 l 712 237 m 203 237 q 305 136 203 136 l 475 136 q 576 237 576 136 l 576 712 q 475 814 576 814 l 305 814 q 203 712 203 814 l 203 237 z "},"P":{"ha":746,"x_min":68,"x_max":678,"o":"m 203 407 l 203 0 l 68 0 l 68 949 l 441 949 q 678 712 678 949 l 678 644 q 441 407 678 407 l 203 407 m 203 814 l 203 543 l 441 543 q 543 644 543 543 l 543 712 q 441 814 543 814 l 203 814 z "},"Q":{"ha":780,"x_min":68,"x_max":712,"o":"m 441 0 l 305 0 q 68 237 68 0 l 68 712 q 305 949 68 949 l 475 949 q 712 712 712 949 l 712 237 q 556 0 712 41 l 610 -136 l 495 -136 l 441 0 m 441 271 l 495 136 q 576 237 576 136 l 576 712 q 475 814 576 814 l 305 814 q 203 712 203 814 l 203 237 q 305 136 203 136 l 380 136 l 326 271 l 441 271 z "},"R":{"ha":746,"x_min":68,"x_max":678,"o":"m 385 407 l 203 407 l 203 0 l 68 0 l 68 949 l 441 949 q 678 712 678 949 l 678 644 q 519 410 678 431 l 678 0 l 543 0 l 385 407 m 203 814 l 203 543 l 441 543 q 543 644 543 543 l 543 712 q 441 814 543 814 l 203 814 z "},"S":{"ha":746,"x_min":68,"x_max":678,"o":"m 68 0 l 68 136 l 441 136 q 543 237 543 136 l 543 305 q 441 407 543 407 l 305 407 q 68 644 68 407 l 68 712 q 305 949 68 949 l 678 949 l 678 814 l 305 814 q 203 712 203 814 l 203 644 q 305 543 203 543 l 441 543 q 678 305 678 543 l 678 237 q 441 0 678 0 l 68 0 z "},"T":{"ha":746,"x_min":68,"x_max":678,"o":"m 678 949 l 678 814 l 441 814 l 441 0 l 305 0 l 305 814 l 68 814 l 68 949 l 678 949 z "},"U":{"ha":780,"x_min":68,"x_max":712,"o":"m 712 949 l 712 237 q 475 0 712 0 l 305 0 q 68 237 68 0 l 68 949 l 203 949 l 203 237 q 305 136 203 136 l 475 136 q 576 237 576 136 l 576 949 l 712 949 z "},"V":{"ha":746,"x_min":0,"x_max":746,"o":"m 610 949 l 746 949 l 461 0 l 285 0 l 0 949 l 136 949 l 373 136 l 610 949 z "},"W":{"ha":1017,"x_min":0,"x_max":1017,"o":"m 834 0 l 658 0 l 509 733 l 359 0 l 183 0 l 0 949 l 136 949 l 271 203 l 441 949 l 576 949 l 746 203 l 882 949 l 1017 949 l 834 0 z "},"X":{"ha":814,"x_min":68,"x_max":746,"o":"m 68 0 l 295 475 l 68 949 l 224 949 l 407 545 l 590 949 l 746 949 l 519 475 l 746 0 l 590 0 l 407 404 l 224 0 l 68 0 z "},"Y":{"ha":678,"x_min":0,"x_max":678,"o":"m 149 949 l 339 543 l 529 949 l 678 949 l 407 407 l 407 0 l 271 0 l 271 407 l 0 949 l 149 949 z "},"Z":{"ha":746,"x_min":68,"x_max":678,"o":"m 678 949 l 678 814 l 224 136 l 678 136 l 678 0 l 68 0 l 68 136 l 522 814 l 68 814 l 68 949 l 678 949 z "},"[":{"ha":407,"x_min":68,"x_max":339,"o":"m 339 949 l 203 949 l 203 0 l 339 0 l 339 -136 l 68 -136 l 68 1085 l 339 1085 l 339 949 z "},"\\":{"ha":556,"x_min":68,"x_max":488,"o":"m 68 1085 l 203 1085 l 488 -136 l 353 -136 l 68 1085 z "},"]":{"ha":407,"x_min":68,"x_max":339,"o":"m 68 1085 l 339 1085 l 339 -136 l 68 -136 l 68 0 l 203 0 l 203 949 l 68 949 l 68 1085 z "},"^":{"ha":678,"x_min":68,"x_max":610,"o":"m 271 949 l 407 949 l 610 475 l 475 475 l 339 814 l 203 475 l 68 475 l 271 949 z "},"_":{"ha":543,"x_min":0,"x_max":543,"o":"m 543 -136 l 543 -271 l 0 -271 l 0 -136 l 543 -136 z "},"`":{"ha":339,"x_min":68,"x_max":271,"o":"m 163 746 l 68 949 l 210 949 l 271 746 l 163 746 z "},"a":{"ha":678,"x_min":68,"x_max":610,"o":"m 475 407 q 339 543 475 543 l 136 543 l 136 678 l 339 678 q 610 407 610 678 l 610 0 l 495 0 l 475 68 q 305 0 407 0 q 68 203 68 0 q 305 407 68 407 q 475 339 407 407 l 475 407 m 475 170 l 475 237 q 305 271 407 271 q 203 203 203 271 q 305 136 203 136 q 475 170 407 136 z "},"b":{"ha":678,"x_min":68,"x_max":610,"o":"m 203 610 q 373 678 271 678 q 610 441 610 678 l 610 237 q 373 0 610 0 q 203 68 271 0 l 183 0 l 68 0 l 68 949 l 203 949 l 203 610 m 373 136 q 475 237 475 136 l 475 441 q 373 543 475 543 q 203 509 271 543 l 203 170 q 373 136 271 136 z "},"c":{"ha":645,"x_min":68,"x_max":576,"o":"m 203 237 q 305 136 203 136 l 576 136 l 576 0 l 305 0 q 68 237 68 0 l 68 441 q 305 678 68 678 l 576 678 l 576 543 l 305 543 q 203 441 203 543 l 203 237 z "},"d":{"ha":678,"x_min":68,"x_max":610,"o":"m 475 949 l 610 949 l 610 0 l 495 0 l 475 68 q 305 0 407 0 q 68 237 68 0 l 68 441 q 305 678 68 678 q 475 610 407 678 l 475 949 m 475 170 l 475 509 q 305 543 407 543 q 203 441 203 543 l 203 237 q 305 136 203 136 q 475 170 407 136 z "},"e":{"ha":678,"x_min":68,"x_max":610,"o":"m 203 285 l 203 237 q 305 136 203 136 l 576 136 l 576 0 l 305 0 q 68 237 68 0 l 68 441 q 305 678 68 678 l 373 678 q 610 441 610 678 l 610 285 l 203 285 m 203 393 l 475 393 l 475 441 q 373 543 475 543 l 305 543 q 203 441 203 543 l 203 393 z "},"f":{"ha":543,"x_min":68,"x_max":475,"o":"m 305 678 l 475 678 l 475 543 l 305 543 l 305 0 l 170 0 l 170 543 l 68 543 l 68 678 l 170 678 l 170 712 q 407 949 170 949 l 475 949 l 475 814 l 407 814 q 305 712 305 814 l 305 678 z "},"g":{"ha":678,"x_min":68,"x_max":610,"o":"m 475 68 q 305 0 407 0 q 68 237 68 0 l 68 441 q 305 678 68 678 q 475 610 407 678 l 495 678 l 610 678 l 610 0 q 339 -271 610 -271 l 136 -271 l 136 -136 l 339 -136 q 475 0 475 -136 l 475 68 m 305 543 q 203 441 203 543 l 203 237 q 305 136 203 136 q 475 170 407 136 l 475 509 q 305 543 407 543 z "},"h":{"ha":678,"x_min":68,"x_max":610,"o":"m 203 0 l 68 0 l 68 949 l 203 949 l 203 610 q 373 678 271 678 q 610 441 610 678 l 610 0 l 475 0 l 475 441 q 373 543 475 543 q 203 509 271 543 l 203 0 z "},"i":{"ha":271,"x_min":68,"x_max":203,"o":"m 203 678 l 203 0 l 68 0 l 68 678 l 203 678 m 203 949 l 203 814 l 68 814 l 68 949 l 203 949 z "},"j":{"ha":271,"x_min":-68,"x_max":203,"o":"m -68 -271 l -68 -136 l -34 -136 q 68 -34 68 -136 l 68 678 l 203 678 l 203 -34 q -34 -271 203 -271 l -68 -271 m 203 949 l 203 814 l 68 814 l 68 949 l 203 949 z "},"k":{"ha":644,"x_min":68,"x_max":610,"o":"m 203 949 l 203 373 l 448 678 l 610 678 l 346 339 l 610 0 l 448 0 l 203 305 l 203 0 l 68 0 l 68 949 l 203 949 z "},"l":{"ha":271,"x_min":68,"x_max":203,"o":"m 203 949 l 203 0 l 68 0 l 68 949 l 203 949 z "},"m":{"ha":1017,"x_min":68,"x_max":949,"o":"m 183 678 l 203 610 q 339 678 237 678 q 513 590 456 678 q 692 678 593 678 q 949 441 949 678 l 949 0 l 814 0 l 814 441 q 698 543 814 543 q 576 475 616 543 l 576 0 l 441 0 l 441 481 q 339 543 417 543 q 203 475 237 543 l 203 0 l 68 0 l 68 678 l 183 678 z "},"n":{"ha":678,"x_min":68,"x_max":610,"o":"m 203 0 l 68 0 l 68 678 l 183 678 l 203 610 q 373 678 271 678 q 610 441 610 678 l 610 0 l 475 0 l 475 441 q 373 543 475 543 q 203 509 271 543 l 203 0 z "},"o":{"ha":678,"x_min":68,"x_max":610,"o":"m 610 203 q 407 0 610 0 l 271 0 q 68 203 68 0 l 68 475 q 271 678 68 678 l 407 678 q 610 475 610 678 l 610 203 m 203 203 q 271 136 203 136 l 407 136 q 475 203 475 136 l 475 475 q 407 536 475 536 l 271 536 q 203 475 203 536 l 203 203 z "},"p":{"ha":678,"x_min":68,"x_max":610,"o":"m 203 -271 l 68 -271 l 68 678 l 183 678 l 203 624 q 339 678 231 678 l 407 678 q 610 475 610 678 l 610 203 q 407 0 610 0 l 339 0 q 203 54 231 0 l 203 -271 m 339 543 q 203 509 231 543 l 203 170 q 339 136 231 136 l 407 136 q 475 203 475 136 l 475 475 q 407 543 475 543 l 339 543 z "},"q":{"ha":678,"x_min":68,"x_max":610,"o":"m 475 54 q 339 0 441 0 l 271 0 q 68 203 68 0 l 68 475 q 271 678 68 678 l 339 678 q 475 624 441 678 l 495 678 l 610 678 l 610 -271 l 475 -271 l 475 54 m 271 543 q 203 475 203 543 l 203 203 q 271 136 203 136 l 339 136 q 475 170 441 136 l 475 509 q 339 543 441 543 l 271 543 z "},"r":{"ha":441,"x_min":68,"x_max":407,"o":"m 203 0 l 68 0 l 68 678 l 183 678 l 203 610 q 373 678 271 678 l 407 678 l 407 543 l 373 543 q 203 509 271 543 l 203 0 z "},"s":{"ha":644,"x_min":68,"x_max":576,"o":"m 68 0 l 68 136 l 373 136 q 441 203 441 136 q 373 278 441 278 l 271 278 q 68 475 68 278 q 271 678 68 678 l 576 678 l 576 543 l 271 543 q 203 475 203 543 q 271 414 203 414 l 373 414 q 576 203 576 414 q 373 0 576 0 l 68 0 z "},"t":{"ha":543,"x_min":68,"x_max":475,"o":"m 305 237 q 407 136 305 136 l 475 136 l 475 0 l 407 0 q 170 237 170 0 l 170 543 l 68 543 l 68 678 l 170 678 l 170 882 l 305 949 l 305 678 l 475 678 l 475 543 l 305 543 l 305 237 z "},"u":{"ha":678,"x_min":68,"x_max":610,"o":"m 475 678 l 610 678 l 610 0 l 495 0 l 475 68 q 305 0 407 0 q 68 237 68 0 l 68 678 l 203 678 l 203 237 q 305 136 203 136 q 475 170 407 136 l 475 678 z "},"v":{"ha":610,"x_min":34,"x_max":576,"o":"m 387 0 l 224 0 l 34 678 l 170 678 l 305 170 l 441 678 l 576 678 l 387 0 z "},"w":{"ha":949,"x_min":34,"x_max":916,"o":"m 671 142 l 780 678 l 916 678 l 760 0 l 590 0 l 475 496 l 359 0 l 190 0 l 34 678 l 170 678 l 278 149 l 393 678 l 556 678 l 671 142 z "},"x":{"ha":746,"x_min":68,"x_max":678,"o":"m 217 678 l 373 399 l 529 678 l 678 678 l 488 339 l 678 0 l 529 0 l 373 279 l 217 0 l 68 0 l 258 339 l 68 678 l 217 678 z "},"y":{"ha":678,"x_min":68,"x_max":610,"o":"m 610 678 l 610 0 q 339 -271 610 -271 l 136 -271 l 136 -136 l 339 -136 q 475 0 475 -136 l 475 68 q 305 0 407 0 q 68 237 68 0 l 68 678 l 203 678 l 203 237 q 305 136 203 136 q 475 170 407 136 l 475 678 l 610 678 z "},"z":{"ha":678,"x_min":68,"x_max":610,"o":"m 610 678 l 610 543 l 244 136 l 610 136 l 610 0 l 68 0 l 68 136 l 434 543 l 68 543 l 68 678 l 610 678 z "},"{":{"ha":543,"x_min":68,"x_max":475,"o":"m 68 543 q 203 644 203 543 l 203 814 q 475 1085 203 1085 l 475 949 q 339 814 339 949 l 339 644 q 203 475 339 495 q 339 305 339 454 l 339 136 q 475 0 339 0 l 475 -136 q 203 136 203 -136 l 203 305 q 68 407 203 407 l 68 543 z "},"|":{"ha":271,"x_min":68,"x_max":203,"o":"m 203 1085 l 203 -136 l 68 -136 l 68 1085 l 203 1085 z "},"}":{"ha":543,"x_min":68,"x_max":475,"o":"m 475 407 q 339 305 339 407 l 339 136 q 68 -136 339 -136 l 68 0 q 203 136 203 0 l 203 305 q 339 475 203 454 q 203 644 203 495 l 203 814 q 68 949 203 949 l 68 1085 q 339 814 339 1085 l 339 644 q 475 543 339 543 l 475 407 z "},"~":{"ha":746,"x_min":68,"x_max":678,"o":"m 68 339 q 237 543 68 543 q 387 492 326 543 q 515 441 448 441 q 576 543 576 441 l 678 543 q 509 339 678 339 q 359 387 420 339 q 231 434 298 434 q 170 339 170 434 l 68 339 z "}," ":{"ha":271,"x_min":0,"x_max":0,"o":""},"¡":{"ha":271,"x_min":68,"x_max":203,"o":"m 203 475 l 203 -203 l 68 -203 l 68 475 l 203 475 m 203 746 l 203 610 l 68 610 l 68 746 l 203 746 z "},"¢":{"ha":610,"x_min":68,"x_max":576,"o":"m 407 949 l 407 814 l 576 814 l 576 678 l 407 678 l 407 271 l 576 271 l 576 136 l 407 136 l 407 0 l 339 0 l 339 136 l 305 136 q 68 373 68 136 l 68 576 q 305 814 68 814 l 339 814 l 339 949 l 407 949 m 203 373 q 305 271 203 271 l 339 271 l 339 678 l 305 678 q 203 576 203 678 l 203 373 z "},"£":{"ha":746,"x_min":68,"x_max":678,"o":"m 305 543 l 678 543 l 678 407 l 305 407 l 305 136 l 678 136 l 678 0 l 68 0 l 68 136 l 170 136 l 170 407 l 68 407 l 68 543 l 170 543 l 170 644 q 475 949 170 949 l 678 949 l 678 814 l 475 814 q 305 644 305 814 l 305 543 z "},"¥":{"ha":678,"x_min":0,"x_max":678,"o":"m 142 949 l 339 543 l 536 949 l 678 949 l 407 407 l 610 407 l 610 305 l 407 305 l 407 203 l 610 203 l 610 102 l 407 102 l 407 0 l 271 0 l 271 102 l 68 102 l 68 203 l 271 203 l 271 305 l 68 305 l 68 407 l 271 407 l 0 949 l 142 949 z "},"¦":{"ha":271,"x_min":68,"x_max":203,"o":"m 203 1085 l 203 543 l 68 543 l 68 1085 l 203 1085 m 203 407 l 203 -136 l 68 -136 l 68 407 l 203 407 z "},"¨":{"ha":543,"x_min":68,"x_max":475,"o":"m 68 746 l 68 882 l 203 882 l 203 746 l 68 746 m 339 746 l 339 882 l 475 882 l 475 746 l 339 746 z "},"©":{"ha":946,"x_min":68,"x_max":878,"o":"m 878 473 q 760 186 878 305 q 473 68 641 68 q 186 186 305 68 q 68 473 68 305 q 186 760 68 641 q 473 878 305 878 q 760 760 641 878 q 878 473 878 641 m 473 783 q 254 692 345 783 q 163 473 163 602 q 254 254 163 345 q 473 163 345 163 q 692 254 602 163 q 783 473 783 345 q 692 692 783 602 q 473 783 602 783 m 583 520 q 557 557 575 541 q 473 593 523 593 q 389 558 424 593 q 354 473 354 523 q 389 389 354 424 q 473 354 424 354 q 557 389 523 354 q 585 430 576 408 l 684 430 q 625 321 671 368 q 473 258 562 258 q 321 321 385 258 q 258 473 258 385 q 321 625 258 562 q 473 688 385 688 q 625 625 562 688 q 683 520 671 579 l 583 520 z "},"«":{"ha":711,"x_min":68,"x_max":644,"o":"m 305 441 l 495 746 l 644 746 l 454 441 l 644 136 l 495 136 l 305 441 m 68 441 l 258 746 l 407 746 l 217 441 l 407 136 l 258 136 l 68 441 z "},"¬":{"ha":678,"x_min":68,"x_max":610,"o":"m 610 543 l 610 203 l 475 203 l 475 407 l 68 407 l 68 543 l 610 543 z "},"®":{"ha":946,"x_min":68,"x_max":878,"o":"m 878 470 q 760 183 878 302 q 473 64 641 64 q 186 183 305 64 q 68 470 68 302 q 186 756 68 637 q 473 875 305 875 q 760 756 641 875 q 878 470 878 637 m 473 780 q 254 689 345 780 q 163 470 163 598 q 254 251 163 342 q 473 160 345 160 q 692 251 602 160 q 783 470 783 342 q 692 689 783 598 q 473 780 602 780 m 507 684 q 650 541 650 684 q 585 416 650 449 l 650 255 l 547 255 l 492 398 l 398 398 l 398 255 l 302 255 l 302 684 l 507 684 m 507 494 q 555 541 555 494 q 507 589 555 589 l 398 589 l 398 494 l 507 494 z "},"°":{"ha":420,"x_min":68,"x_max":353,"o":"m 353 814 q 311 713 353 755 q 210 671 269 671 q 110 713 151 671 q 68 814 68 755 q 110 915 68 873 q 210 956 151 956 q 311 915 269 956 q 353 814 353 873 m 210 875 q 167 857 185 875 q 149 814 149 839 q 167 771 149 789 q 210 753 185 753 q 253 771 235 753 q 271 814 271 789 q 253 857 271 839 q 210 875 235 875 z "},"±":{"ha":678,"x_min":68,"x_max":610,"o":"m 271 543 l 271 746 l 407 746 l 407 543 l 610 543 l 610 407 l 407 407 l 407 203 l 271 203 l 271 407 l 68 407 l 68 543 l 271 543 m 610 136 l 610 0 l 68 0 l 68 136 l 610 136 z "},"´":{"ha":339,"x_min":68,"x_max":271,"o":"m 68 746 l 129 949 l 271 949 l 176 746 l 68 746 z "},"µ":{"ha":678,"x_min":68,"x_max":610,"o":"m 203 678 l 203 203 q 339 136 237 136 q 475 203 441 136 l 475 678 l 610 678 l 610 0 l 475 0 l 475 68 q 339 0 441 0 q 203 57 237 0 l 203 -302 l 68 -302 l 68 678 l 203 678 z "},"¶":{"ha":814,"x_min":68,"x_max":746,"o":"m 746 949 l 746 -271 l 610 -271 l 610 814 l 475 814 l 475 -271 l 339 -271 l 339 407 q 68 678 68 407 q 339 949 68 949 l 746 949 z "},"·":{"ha":271,"x_min":68,"x_max":203,"o":"m 68 407 l 68 543 l 203 543 l 203 407 l 68 407 z "},"¸":{"ha":407,"x_min":68,"x_max":339,"o":"m 136 -68 q 157 -67 147 -67 q 339 -156 339 -67 q 190 -292 339 -292 q 68 -271 122 -292 l 68 -183 q 190 -203 122 -203 q 251 -156 251 -203 q 136 -109 251 -109 l 136 -68 z "},"»":{"ha":711,"x_min":68,"x_max":644,"o":"m 217 136 l 68 136 l 258 441 l 68 746 l 217 746 l 407 441 l 217 136 m 454 136 l 305 136 l 495 441 l 305 746 l 454 746 l 644 441 l 454 136 z "},"¿":{"ha":678,"x_min":68,"x_max":610,"o":"m 475 475 l 475 203 l 305 203 q 203 102 203 203 l 203 34 q 305 -68 203 -68 l 610 -68 l 610 -203 l 305 -203 q 68 34 68 -203 l 68 102 q 305 339 68 339 l 339 339 l 339 475 l 475 475 m 339 610 l 339 746 l 475 746 l 475 610 l 339 610 z "},"À":{"ha":746,"x_min":0,"x_max":746,"o":"m 746 0 l 610 0 l 547 203 l 199 203 l 136 0 l 0 0 l 285 949 l 461 949 l 746 0 m 240 339 l 506 339 l 373 814 l 240 339 m 332 1017 l 237 1221 l 380 1221 l 441 1017 l 332 1017 z "},"Á":{"ha":746,"x_min":0,"x_max":746,"o":"m 746 0 l 610 0 l 547 203 l 199 203 l 136 0 l 0 0 l 285 949 l 461 949 l 746 0 m 240 339 l 506 339 l 373 814 l 240 339 m 305 1017 l 366 1221 l 509 1221 l 414 1017 l 305 1017 z "},"Â":{"ha":746,"x_min":0,"x_max":746,"o":"m 746 0 l 610 0 l 547 203 l 199 203 l 136 0 l 0 0 l 285 949 l 461 949 l 746 0 m 240 339 l 506 339 l 373 814 l 240 339 m 292 1221 l 454 1221 l 576 1017 l 461 1017 l 373 1153 l 285 1017 l 170 1017 l 292 1221 z "},"Ã":{"ha":746,"x_min":0,"x_max":746,"o":"m 746 0 l 610 0 l 547 203 l 199 203 l 136 0 l 0 0 l 285 949 l 461 949 l 746 0 m 240 339 l 506 339 l 373 814 l 240 339 m 122 1017 q 251 1187 122 1187 q 373 1153 319 1187 q 488 1119 427 1119 q 536 1187 536 1119 l 624 1187 q 495 1017 624 1017 q 373 1051 427 1017 q 258 1085 319 1085 q 210 1017 210 1085 l 122 1017 z "},"Ä":{"ha":746,"x_min":0,"x_max":746,"o":"m 746 0 l 610 0 l 547 203 l 199 203 l 136 0 l 0 0 l 285 949 l 461 949 l 746 0 m 240 339 l 506 339 l 373 814 l 240 339 m 170 1017 l 170 1153 l 305 1153 l 305 1017 l 170 1017 m 441 1017 l 441 1153 l 576 1153 l 576 1017 l 441 1017 z "},"Å":{"ha":746,"x_min":0,"x_max":746,"o":"m 746 0 l 610 0 l 547 203 l 199 203 l 136 0 l 0 0 l 285 949 l 461 949 l 746 0 m 240 339 l 506 339 l 373 814 l 240 339 m 515 1153 q 474 1052 515 1094 q 373 1010 432 1010 q 272 1052 314 1010 q 231 1153 231 1094 q 272 1254 231 1212 q 373 1295 314 1295 q 474 1254 432 1295 q 515 1153 515 1212 m 373 1214 q 330 1196 348 1214 q 312 1153 312 1178 q 330 1110 312 1128 q 373 1092 348 1092 q 416 1110 398 1092 q 434 1153 434 1128 q 416 1196 434 1178 q 373 1214 398 1214 z "},"Æ":{"ha":1017,"x_min":0,"x_max":949,"o":"m 949 543 l 949 407 l 610 407 l 610 136 l 949 136 l 949 0 l 475 0 l 475 203 l 199 203 l 136 0 l 0 0 l 285 949 l 949 949 l 949 814 l 610 814 l 610 543 l 949 543 m 475 814 l 373 814 l 240 339 l 475 339 l 475 814 z "},"Ç":{"ha":678,"x_min":68,"x_max":610,"o":"m 203 237 q 305 136 203 136 l 610 136 l 610 0 l 305 0 q 68 237 68 0 l 68 712 q 305 949 68 949 l 610 949 l 610 814 l 305 814 q 203 712 203 814 l 203 237 m 339 -68 q 361 -67 351 -67 q 543 -156 543 -67 q 393 -292 543 -292 q 271 -271 326 -292 l 271 -183 q 393 -203 326 -203 q 454 -156 454 -203 q 339 -109 454 -109 l 339 -68 z "},"È":{"ha":678,"x_min":68,"x_max":610,"o":"m 610 543 l 610 407 l 203 407 l 203 136 l 610 136 l 610 0 l 68 0 l 68 949 l 610 949 l 610 814 l 203 814 l 203 543 l 610 543 m 298 1017 l 203 1221 l 346 1221 l 407 1017 l 298 1017 z "},"É":{"ha":678,"x_min":68,"x_max":610,"o":"m 610 543 l 610 407 l 203 407 l 203 136 l 610 136 l 610 0 l 68 0 l 68 949 l 610 949 l 610 814 l 203 814 l 203 543 l 610 543 m 271 1017 l 332 1221 l 475 1221 l 380 1017 l 271 1017 z "},"Ê":{"ha":678,"x_min":68,"x_max":610,"o":"m 610 543 l 610 407 l 203 407 l 203 136 l 610 136 l 610 0 l 68 0 l 68 949 l 610 949 l 610 814 l 203 814 l 203 543 l 610 543 m 258 1221 l 420 1221 l 543 1017 l 427 1017 l 339 1153 l 251 1017 l 136 1017 l 258 1221 z "},"Ë":{"ha":678,"x_min":68,"x_max":610,"o":"m 610 543 l 610 407 l 203 407 l 203 136 l 610 136 l 610 0 l 68 0 l 68 949 l 610 949 l 610 814 l 203 814 l 203 543 l 610 543 m 136 1017 l 136 1153 l 271 1153 l 271 1017 l 136 1017 m 407 1017 l 407 1153 l 543 1153 l 543 1017 l 407 1017 z "},"Ì":{"ha":271,"x_min":1,"x_max":204,"o":"m 203 949 l 203 0 l 68 0 l 68 949 l 203 949 m 96 1017 l 1 1221 l 143 1221 l 204 1017 l 96 1017 z "},"Í":{"ha":271,"x_min":68,"x_max":271,"o":"m 203 949 l 203 0 l 68 0 l 68 949 l 203 949 m 68 1017 l 129 1221 l 271 1221 l 176 1017 l 68 1017 z "},"Î":{"ha":271,"x_min":-67,"x_max":340,"o":"m 203 949 l 203 0 l 68 0 l 68 949 l 203 949 m 55 1221 l 218 1221 l 340 1017 l 224 1017 l 136 1153 l 48 1017 l -67 1017 l 55 1221 z "},"Ï":{"ha":271,"x_min":-67,"x_max":340,"o":"m 203 949 l 203 0 l 68 0 l 68 949 l 203 949 m -67 1017 l -67 1153 l 68 1153 l 68 1017 l -67 1017 m 204 1017 l 204 1153 l 340 1153 l 340 1017 l 204 1017 z "},"Ð":{"ha":746,"x_min":-68,"x_max":678,"o":"m 475 949 q 678 746 678 949 l 678 203 q 475 0 678 0 l 68 0 l 68 427 l -68 427 l -68 529 l 68 529 l 68 949 l 475 949 m 543 746 q 475 814 543 814 l 203 814 l 203 529 l 339 529 l 339 427 l 203 427 l 203 136 l 475 136 q 543 203 543 136 l 543 746 z "},"Ñ":{"ha":814,"x_min":68,"x_max":746,"o":"m 203 949 l 610 271 l 610 949 l 746 949 l 746 0 l 610 0 l 203 678 l 203 0 l 68 0 l 68 949 l 203 949 m 156 1017 q 285 1187 156 1187 q 407 1153 353 1187 q 522 1119 461 1119 q 570 1187 570 1119 l 658 1187 q 529 1017 658 1017 q 407 1051 461 1017 q 292 1085 353 1085 q 244 1017 244 1085 l 156 1017 z "},"Ò":{"ha":780,"x_min":68,"x_max":712,"o":"m 712 237 q 475 0 712 0 l 305 0 q 68 237 68 0 l 68 712 q 305 949 68 949 l 475 949 q 712 712 712 949 l 712 237 m 203 237 q 305 136 203 136 l 475 136 q 576 237 576 136 l 576 712 q 475 814 576 814 l 305 814 q 203 712 203 814 l 203 237 m 349 1017 l 254 1221 l 397 1221 l 458 1017 l 349 1017 z "},"Ó":{"ha":780,"x_min":68,"x_max":712,"o":"m 712 237 q 475 0 712 0 l 305 0 q 68 237 68 0 l 68 712 q 305 949 68 949 l 475 949 q 712 712 712 949 l 712 237 m 203 237 q 305 136 203 136 l 475 136 q 576 237 576 136 l 576 712 q 475 814 576 814 l 305 814 q 203 712 203 814 l 203 237 m 322 1017 l 383 1221 l 526 1221 l 431 1017 l 322 1017 z "},"Ô":{"ha":780,"x_min":68,"x_max":712,"o":"m 712 237 q 475 0 712 0 l 305 0 q 68 237 68 0 l 68 712 q 305 949 68 949 l 475 949 q 712 712 712 949 l 712 237 m 203 237 q 305 136 203 136 l 475 136 q 576 237 576 136 l 576 712 q 475 814 576 814 l 305 814 q 203 712 203 814 l 203 237 m 309 1221 l 471 1221 l 593 1017 l 478 1017 l 390 1153 l 302 1017 l 186 1017 l 309 1221 z "},"Õ":{"ha":780,"x_min":68,"x_max":712,"o":"m 712 237 q 475 0 712 0 l 305 0 q 68 237 68 0 l 68 712 q 305 949 68 949 l 475 949 q 712 712 712 949 l 712 237 m 203 237 q 305 136 203 136 l 475 136 q 576 237 576 136 l 576 712 q 475 814 576 814 l 305 814 q 203 712 203 814 l 203 237 m 139 1017 q 268 1187 139 1187 q 390 1153 336 1187 q 505 1119 444 1119 q 553 1187 553 1119 l 641 1187 q 512 1017 641 1017 q 390 1051 444 1017 q 275 1085 336 1085 q 227 1017 227 1085 l 139 1017 z "},"Ö":{"ha":780,"x_min":68,"x_max":712,"o":"m 712 237 q 475 0 712 0 l 305 0 q 68 237 68 0 l 68 712 q 305 949 68 949 l 475 949 q 712 712 712 949 l 712 237 m 203 237 q 305 136 203 136 l 475 136 q 576 237 576 136 l 576 712 q 475 814 576 814 l 305 814 q 203 712 203 814 l 203 237 m 186 1017 l 186 1153 l 322 1153 l 322 1017 l 186 1017 m 458 1017 l 458 1153 l 593 1153 l 593 1017 l 458 1017 z "},"×":{"ha":711,"x_min":68,"x_max":644,"o":"m 260 471 l 68 663 l 163 758 l 355 566 l 547 758 l 644 663 l 452 471 l 644 279 l 547 183 l 355 375 l 163 183 l 68 279 l 260 471 z "},"Ø":{"ha":780,"x_min":68,"x_max":712,"o":"m 712 237 q 475 0 712 0 l 322 0 l 288 -136 l 186 -136 l 222 9 q 68 237 68 45 l 68 712 q 305 949 68 949 l 458 949 l 492 1085 l 593 1085 l 557 941 q 712 712 712 903 l 712 237 m 203 237 q 256 144 203 164 l 424 814 l 305 814 q 203 712 203 814 l 203 237 m 576 712 q 524 806 576 785 l 356 136 l 475 136 q 576 237 576 136 l 576 712 z "},"Ù":{"ha":780,"x_min":68,"x_max":712,"o":"m 712 949 l 712 237 q 475 0 712 0 l 305 0 q 68 237 68 0 l 68 949 l 203 949 l 203 237 q 305 136 203 136 l 475 136 q 576 237 576 136 l 576 949 l 712 949 m 349 1017 l 254 1221 l 397 1221 l 458 1017 l 349 1017 z "},"Ú":{"ha":780,"x_min":68,"x_max":712,"o":"m 712 949 l 712 237 q 475 0 712 0 l 305 0 q 68 237 68 0 l 68 949 l 203 949 l 203 237 q 305 136 203 136 l 475 136 q 576 237 576 136 l 576 949 l 712 949 m 322 1017 l 383 1221 l 526 1221 l 431 1017 l 322 1017 z "},"Û":{"ha":780,"x_min":68,"x_max":712,"o":"m 712 949 l 712 237 q 475 0 712 0 l 305 0 q 68 237 68 0 l 68 949 l 203 949 l 203 237 q 305 136 203 136 l 475 136 q 576 237 576 136 l 576 949 l 712 949 m 309 1221 l 471 1221 l 593 1017 l 478 1017 l 390 1153 l 302 1017 l 186 1017 l 309 1221 z "},"Ü":{"ha":780,"x_min":68,"x_max":712,"o":"m 712 949 l 712 237 q 475 0 712 0 l 305 0 q 68 237 68 0 l 68 949 l 203 949 l 203 237 q 305 136 203 136 l 475 136 q 576 237 576 136 l 576 949 l 712 949 m 186 1017 l 186 1153 l 322 1153 l 322 1017 l 186 1017 m 458 1017 l 458 1153 l 593 1153 l 593 1017 l 458 1017 z "},"Ý":{"ha":678,"x_min":0,"x_max":678,"o":"m 149 949 l 339 543 l 529 949 l 678 949 l 407 407 l 407 0 l 271 0 l 271 407 l 0 949 l 149 949 m 271 1017 l 332 1221 l 475 1221 l 380 1017 l 271 1017 z "},"Þ":{"ha":746,"x_min":68,"x_max":678,"o":"m 441 217 l 203 217 l 203 0 l 68 0 l 68 949 l 203 949 l 203 726 l 441 726 q 678 488 678 726 l 678 454 q 441 217 678 217 m 203 590 l 203 353 l 441 353 q 543 454 543 353 l 543 488 q 441 590 543 590 l 203 590 z "},"ß":{"ha":746,"x_min":68,"x_max":678,"o":"m 441 136 q 543 237 543 136 l 543 305 q 441 407 543 407 l 271 407 l 271 543 l 441 543 q 543 610 543 543 l 543 712 q 441 814 543 814 l 271 814 q 203 712 203 814 l 203 0 l 68 0 l 68 712 q 271 949 68 949 l 441 949 q 678 712 678 949 l 678 610 q 563 475 678 495 q 678 305 678 454 l 678 237 q 441 0 678 0 l 271 0 l 271 136 l 441 136 z "},"à":{"ha":678,"x_min":68,"x_max":610,"o":"m 475 407 q 339 543 475 543 l 136 543 l 136 678 l 339 678 q 610 407 610 678 l 610 0 l 495 0 l 475 68 q 305 0 407 0 q 68 203 68 0 q 305 407 68 407 q 475 339 407 407 l 475 407 m 475 170 l 475 237 q 305 271 407 271 q 203 203 203 271 q 305 136 203 136 q 475 170 407 136 m 298 746 l 203 949 l 346 949 l 407 746 l 298 746 z "},"á":{"ha":678,"x_min":68,"x_max":610,"o":"m 475 407 q 339 543 475 543 l 136 543 l 136 678 l 339 678 q 610 407 610 678 l 610 0 l 495 0 l 475 68 q 305 0 407 0 q 68 203 68 0 q 305 407 68 407 q 475 339 407 407 l 475 407 m 475 170 l 475 237 q 305 271 407 271 q 203 203 203 271 q 305 136 203 136 q 475 170 407 136 m 271 746 l 332 949 l 475 949 l 380 746 l 271 746 z "},"â":{"ha":678,"x_min":68,"x_max":610,"o":"m 475 407 q 339 543 475 543 l 136 543 l 136 678 l 339 678 q 610 407 610 678 l 610 0 l 495 0 l 475 68 q 305 0 407 0 q 68 203 68 0 q 305 407 68 407 q 475 339 407 407 l 475 407 m 475 170 l 475 237 q 305 271 407 271 q 203 203 203 271 q 305 136 203 136 q 475 170 407 136 m 258 949 l 420 949 l 543 746 l 427 746 l 339 882 l 251 746 l 136 746 l 258 949 z "},"ã":{"ha":678,"x_min":68,"x_max":610,"o":"m 475 407 q 339 543 475 543 l 136 543 l 136 678 l 339 678 q 610 407 610 678 l 610 0 l 495 0 l 475 68 q 305 0 407 0 q 68 203 68 0 q 305 407 68 407 q 475 339 407 407 l 475 407 m 475 170 l 475 237 q 305 271 407 271 q 203 203 203 271 q 305 136 203 136 q 475 170 407 136 m 88 746 q 217 916 88 916 q 339 882 285 916 q 454 848 393 848 q 502 916 502 848 l 590 916 q 461 746 590 746 q 339 780 393 746 q 224 814 285 814 q 176 746 176 814 l 88 746 z "},"ä":{"ha":678,"x_min":68,"x_max":610,"o":"m 475 407 q 339 543 475 543 l 136 543 l 136 678 l 339 678 q 610 407 610 678 l 610 0 l 495 0 l 475 68 q 305 0 407 0 q 68 203 68 0 q 305 407 68 407 q 475 339 407 407 l 475 407 m 475 170 l 475 237 q 305 271 407 271 q 203 203 203 271 q 305 136 203 136 q 475 170 407 136 m 136 746 l 136 882 l 271 882 l 271 746 l 136 746 m 407 746 l 407 882 l 543 882 l 543 746 l 407 746 z "},"å":{"ha":678,"x_min":68,"x_max":610,"o":"m 475 407 q 339 543 475 543 l 136 543 l 136 678 l 339 678 q 610 407 610 678 l 610 0 l 495 0 l 475 68 q 305 0 407 0 q 68 203 68 0 q 305 407 68 407 q 475 339 407 407 l 475 407 m 475 170 l 475 237 q 305 271 407 271 q 203 203 203 271 q 305 136 203 136 q 475 170 407 136 m 481 882 q 440 781 481 823 q 339 739 398 739 q 238 781 280 739 q 197 882 197 823 q 238 982 197 941 q 339 1024 280 1024 q 440 982 398 1024 q 481 882 481 941 m 339 943 q 296 925 314 943 q 278 882 278 907 q 296 839 278 857 q 339 821 314 821 q 382 839 364 821 q 400 882 400 857 q 382 925 400 907 q 339 943 364 943 z "},"æ":{"ha":1051,"x_min":68,"x_max":983,"o":"m 610 285 l 610 203 q 678 136 610 136 l 949 136 l 949 0 l 678 0 q 525 72 575 0 q 305 0 473 0 q 68 203 68 0 q 305 407 68 407 q 475 339 407 407 l 475 407 q 339 543 475 543 l 136 543 l 136 678 l 339 678 q 539 592 500 678 q 712 678 572 678 l 746 678 q 983 441 983 678 l 983 285 l 610 285 m 610 393 l 848 393 l 848 441 q 746 543 848 543 l 712 543 q 610 441 610 543 l 610 393 m 475 170 l 475 237 q 305 271 407 271 q 203 203 203 271 q 305 136 203 136 q 475 170 407 136 z "},"ç":{"ha":645,"x_min":68,"x_max":576,"o":"m 203 237 q 305 136 203 136 l 576 136 l 576 0 l 305 0 q 68 237 68 0 l 68 441 q 305 678 68 678 l 576 678 l 576 543 l 305 543 q 203 441 203 543 l 203 237 m 254 -68 q 276 -67 266 -67 q 458 -156 458 -67 q 309 -292 458 -292 q 186 -271 241 -292 l 186 -183 q 309 -203 241 -203 q 370 -156 370 -203 q 254 -109 370 -109 l 254 -68 z "},"è":{"ha":678,"x_min":68,"x_max":610,"o":"m 203 285 l 203 237 q 305 136 203 136 l 576 136 l 576 0 l 305 0 q 68 237 68 0 l 68 441 q 305 678 68 678 l 373 678 q 610 441 610 678 l 610 285 l 203 285 m 203 393 l 475 393 l 475 441 q 373 543 475 543 l 305 543 q 203 441 203 543 l 203 393 m 298 746 l 203 949 l 346 949 l 407 746 l 298 746 z "},"é":{"ha":678,"x_min":68,"x_max":610,"o":"m 203 285 l 203 237 q 305 136 203 136 l 576 136 l 576 0 l 305 0 q 68 237 68 0 l 68 441 q 305 678 68 678 l 373 678 q 610 441 610 678 l 610 285 l 203 285 m 203 393 l 475 393 l 475 441 q 373 543 475 543 l 305 543 q 203 441 203 543 l 203 393 m 271 746 l 332 949 l 475 949 l 380 746 l 271 746 z "},"ê":{"ha":678,"x_min":68,"x_max":610,"o":"m 203 285 l 203 237 q 305 136 203 136 l 576 136 l 576 0 l 305 0 q 68 237 68 0 l 68 441 q 305 678 68 678 l 373 678 q 610 441 610 678 l 610 285 l 203 285 m 203 393 l 475 393 l 475 441 q 373 543 475 543 l 305 543 q 203 441 203 543 l 203 393 m 258 949 l 420 949 l 543 746 l 427 746 l 339 882 l 251 746 l 136 746 l 258 949 z "},"ë":{"ha":678,"x_min":68,"x_max":610,"o":"m 203 285 l 203 237 q 305 136 203 136 l 576 136 l 576 0 l 305 0 q 68 237 68 0 l 68 441 q 305 678 68 678 l 373 678 q 610 441 610 678 l 610 285 l 203 285 m 203 393 l 475 393 l 475 441 q 373 543 475 543 l 305 543 q 203 441 203 543 l 203 393 m 136 746 l 136 882 l 271 882 l 271 746 l 136 746 m 407 746 l 407 882 l 543 882 l 543 746 l 407 746 z "},"ì":{"ha":271,"x_min":1,"x_max":204,"o":"m 203 678 l 203 0 l 68 0 l 68 678 l 203 678 m 96 746 l 1 949 l 143 949 l 204 746 l 96 746 z "},"í":{"ha":271,"x_min":68,"x_max":271,"o":"m 203 678 l 203 0 l 68 0 l 68 678 l 203 678 m 68 746 l 129 949 l 271 949 l 176 746 l 68 746 z "},"î":{"ha":271,"x_min":-67,"x_max":340,"o":"m 203 678 l 203 0 l 68 0 l 68 678 l 203 678 m 55 949 l 218 949 l 340 746 l 224 746 l 136 882 l 48 746 l -67 746 l 55 949 z "},"ï":{"ha":271,"x_min":-67,"x_max":340,"o":"m 203 678 l 203 0 l 68 0 l 68 678 l 203 678 m -67 746 l -67 882 l 68 882 l 68 746 l -67 746 m 204 746 l 204 882 l 340 882 l 340 746 l 204 746 z "},"ð":{"ha":678,"x_min":68,"x_max":746,"o":"m 475 760 l 339 760 l 339 861 l 475 861 l 475 949 l 610 949 l 610 861 l 746 861 l 746 760 l 610 760 l 610 0 l 495 0 l 475 54 q 305 0 414 0 q 68 237 68 0 l 68 441 q 305 678 68 678 q 475 624 414 678 l 475 760 m 305 136 q 475 170 414 136 l 475 509 q 305 543 414 543 q 203 441 203 543 l 203 237 q 305 136 203 136 z "},"ñ":{"ha":678,"x_min":68,"x_max":610,"o":"m 203 0 l 68 0 l 68 678 l 183 678 l 203 610 q 373 678 271 678 q 610 441 610 678 l 610 0 l 475 0 l 475 441 q 373 543 475 543 q 203 509 271 543 l 203 0 m 88 746 q 217 916 88 916 q 339 882 285 916 q 454 848 393 848 q 502 916 502 848 l 590 916 q 461 746 590 746 q 339 780 393 746 q 224 814 285 814 q 176 746 176 814 l 88 746 z "},"ò":{"ha":678,"x_min":68,"x_max":610,"o":"m 610 203 q 407 0 610 0 l 271 0 q 68 203 68 0 l 68 475 q 271 678 68 678 l 407 678 q 610 475 610 678 l 610 203 m 203 203 q 271 136 203 136 l 407 136 q 475 203 475 136 l 475 475 q 407 536 475 536 l 271 536 q 203 475 203 536 l 203 203 m 298 746 l 203 949 l 346 949 l 407 746 l 298 746 z "},"ó":{"ha":678,"x_min":68,"x_max":610,"o":"m 610 203 q 407 0 610 0 l 271 0 q 68 203 68 0 l 68 475 q 271 678 68 678 l 407 678 q 610 475 610 678 l 610 203 m 203 203 q 271 136 203 136 l 407 136 q 475 203 475 136 l 475 475 q 407 536 475 536 l 271 536 q 203 475 203 536 l 203 203 m 271 746 l 332 949 l 475 949 l 380 746 l 271 746 z "},"ô":{"ha":678,"x_min":68,"x_max":610,"o":"m 610 203 q 407 0 610 0 l 271 0 q 68 203 68 0 l 68 475 q 271 678 68 678 l 407 678 q 610 475 610 678 l 610 203 m 203 203 q 271 136 203 136 l 407 136 q 475 203 475 136 l 475 475 q 407 536 475 536 l 271 536 q 203 475 203 536 l 203 203 m 258 949 l 420 949 l 543 746 l 427 746 l 339 882 l 251 746 l 136 746 l 258 949 z "},"õ":{"ha":678,"x_min":68,"x_max":610,"o":"m 610 203 q 407 0 610 0 l 271 0 q 68 203 68 0 l 68 475 q 271 678 68 678 l 407 678 q 610 475 610 678 l 610 203 m 203 203 q 271 136 203 136 l 407 136 q 475 203 475 136 l 475 475 q 407 536 475 536 l 271 536 q 203 475 203 536 l 203 203 m 88 746 q 217 916 88 916 q 339 882 285 916 q 454 848 393 848 q 502 916 502 848 l 590 916 q 461 746 590 746 q 339 780 393 746 q 224 814 285 814 q 176 746 176 814 l 88 746 z "},"ö":{"ha":678,"x_min":68,"x_max":610,"o":"m 610 203 q 407 0 610 0 l 271 0 q 68 203 68 0 l 68 475 q 271 678 68 678 l 407 678 q 610 475 610 678 l 610 203 m 203 203 q 271 136 203 136 l 407 136 q 475 203 475 136 l 475 475 q 407 536 475 536 l 271 536 q 203 475 203 536 l 203 203 m 136 746 l 136 882 l 271 882 l 271 746 l 136 746 m 407 746 l 407 882 l 543 882 l 543 746 l 407 746 z "},"÷":{"ha":678,"x_min":68,"x_max":610,"o":"m 610 543 l 610 407 l 68 407 l 68 543 l 610 543 m 271 136 l 271 271 l 407 271 l 407 136 l 271 136 m 271 678 l 271 814 l 407 814 l 407 678 l 271 678 z "},"ø":{"ha":678,"x_min":68,"x_max":610,"o":"m 543 814 l 495 666 q 610 475 610 628 l 610 203 q 407 0 610 0 l 281 0 l 237 -136 l 136 -136 l 183 12 q 68 203 68 50 l 68 475 q 271 678 68 678 l 397 678 l 441 814 l 543 814 m 475 475 q 450 526 475 511 l 325 136 l 407 136 q 475 203 475 136 l 475 475 m 203 203 q 227 147 203 163 l 351 536 l 271 536 q 203 475 203 536 l 203 203 z "},"ù":{"ha":678,"x_min":68,"x_max":610,"o":"m 475 678 l 610 678 l 610 0 l 495 0 l 475 68 q 305 0 407 0 q 68 237 68 0 l 68 678 l 203 678 l 203 237 q 305 136 203 136 q 475 170 407 136 l 475 678 m 298 746 l 203 949 l 346 949 l 407 746 l 298 746 z "},"ú":{"ha":678,"x_min":68,"x_max":610,"o":"m 475 678 l 610 678 l 610 0 l 495 0 l 475 68 q 305 0 407 0 q 68 237 68 0 l 68 678 l 203 678 l 203 237 q 305 136 203 136 q 475 170 407 136 l 475 678 m 271 746 l 332 949 l 475 949 l 380 746 l 271 746 z "},"û":{"ha":678,"x_min":68,"x_max":610,"o":"m 475 678 l 610 678 l 610 0 l 495 0 l 475 68 q 305 0 407 0 q 68 237 68 0 l 68 678 l 203 678 l 203 237 q 305 136 203 136 q 475 170 407 136 l 475 678 m 258 949 l 420 949 l 543 746 l 427 746 l 339 882 l 251 746 l 136 746 l 258 949 z "},"ü":{"ha":678,"x_min":68,"x_max":610,"o":"m 475 678 l 610 678 l 610 0 l 495 0 l 475 68 q 305 0 407 0 q 68 237 68 0 l 68 678 l 203 678 l 203 237 q 305 136 203 136 q 475 170 407 136 l 475 678 m 136 746 l 136 882 l 271 882 l 271 746 l 136 746 m 407 746 l 407 882 l 543 882 l 543 746 l 407 746 z "},"ý":{"ha":678,"x_min":68,"x_max":610,"o":"m 610 678 l 610 0 q 339 -271 610 -271 l 136 -271 l 136 -136 l 339 -136 q 475 0 475 -136 l 475 68 q 305 0 407 0 q 68 237 68 0 l 68 678 l 203 678 l 203 237 q 305 136 203 136 q 475 170 407 136 l 475 678 l 610 678 m 271 746 l 332 949 l 475 949 l 380 746 l 271 746 z "},"þ":{"ha":678,"x_min":68,"x_max":610,"o":"m 203 -271 l 68 -271 l 68 949 l 203 949 l 203 624 q 339 678 231 678 l 407 678 q 610 475 610 678 l 610 203 q 407 0 610 0 l 339 0 q 203 54 231 0 l 203 -271 m 339 543 q 203 509 231 543 l 203 170 q 339 136 231 136 l 407 136 q 475 203 475 136 l 475 475 q 407 543 475 543 l 339 543 z "},"ÿ":{"ha":678,"x_min":68,"x_max":610,"o":"m 610 678 l 610 0 q 339 -271 610 -271 l 136 -271 l 136 -136 l 339 -136 q 475 0 475 -136 l 475 68 q 305 0 407 0 q 68 237 68 0 l 68 678 l 203 678 l 203 237 q 305 136 203 136 q 475 170 407 136 l 475 678 l 610 678 m 136 746 l 136 882 l 271 882 l 271 746 l 136 746 m 407 746 l 407 882 l 543 882 l 543 746 l 407 746 z "},"ı":{"ha":271,"x_min":68,"x_max":203,"o":"m 203 678 l 203 0 l 68 0 l 68 678 l 203 678 z "},"Œ":{"ha":1153,"x_min":68,"x_max":1085,"o":"m 1085 543 l 1085 407 l 712 407 l 712 136 l 1085 136 l 1085 0 l 576 0 l 576 62 q 434 0 534 0 l 305 0 q 68 237 68 0 l 68 712 q 305 949 68 949 l 441 949 q 576 887 534 949 l 576 949 l 1085 949 l 1085 814 l 712 814 l 712 543 l 1085 543 m 203 237 q 305 136 203 136 l 434 136 q 576 203 576 136 l 576 746 q 441 814 576 814 l 305 814 q 203 712 203 814 l 203 237 z "},"œ":{"ha":1017,"x_min":68,"x_max":949,"o":"m 576 285 l 576 203 q 644 136 576 136 l 916 136 l 916 0 l 644 0 q 509 78 550 0 q 305 0 475 0 q 68 237 68 0 l 68 441 q 305 678 68 678 q 509 600 475 678 q 678 678 550 678 l 712 678 q 949 441 949 678 l 949 285 l 576 285 m 203 237 q 305 136 203 136 q 441 203 441 136 l 441 475 q 305 543 441 543 q 203 441 203 543 l 203 237 m 576 393 l 814 393 l 814 441 q 712 543 814 543 l 678 543 q 576 441 576 543 l 576 393 z "},"Š":{"ha":746,"x_min":68,"x_max":678,"o":"m 68 0 l 68 136 l 441 136 q 543 237 543 136 l 543 305 q 441 407 543 407 l 305 407 q 68 644 68 407 l 68 712 q 305 949 68 949 l 678 949 l 678 814 l 305 814 q 203 712 203 814 l 203 644 q 305 543 203 543 l 441 543 q 678 305 678 543 l 678 237 q 441 0 678 0 l 68 0 m 170 1221 l 285 1221 l 373 1085 l 461 1221 l 576 1221 l 454 1017 l 292 1017 l 170 1221 z "},"š":{"ha":644,"x_min":68,"x_max":576,"o":"m 68 0 l 68 136 l 373 136 q 441 203 441 136 q 373 278 441 278 l 271 278 q 68 475 68 278 q 271 678 68 678 l 576 678 l 576 543 l 271 543 q 203 475 203 543 q 271 414 203 414 l 373 414 q 576 203 576 414 q 373 0 576 0 l 68 0 m 119 949 l 234 949 l 322 814 l 410 949 l 526 949 l 404 746 l 241 746 l 119 949 z "},"Ÿ":{"ha":678,"x_min":0,"x_max":678,"o":"m 149 949 l 339 543 l 529 949 l 678 949 l 407 407 l 407 0 l 271 0 l 271 407 l 0 949 l 149 949 m 136 1017 l 136 1153 l 271 1153 l 271 1017 l 136 1017 m 407 1017 l 407 1153 l 543 1153 l 543 1017 l 407 1017 z "},"Ž":{"ha":746,"x_min":68,"x_max":678,"o":"m 678 949 l 678 814 l 224 136 l 678 136 l 678 0 l 68 0 l 68 136 l 522 814 l 68 814 l 68 949 l 678 949 m 170 1221 l 285 1221 l 373 1085 l 461 1221 l 576 1221 l 454 1017 l 292 1017 l 170 1221 z "},"ž":{"ha":678,"x_min":68,"x_max":610,"o":"m 610 678 l 610 543 l 244 136 l 610 136 l 610 0 l 68 0 l 68 136 l 434 543 l 68 543 l 68 678 l 610 678 m 136 949 l 251 949 l 339 814 l 427 949 l 543 949 l 420 746 l 258 746 l 136 949 z "},"ƒ":{"ha":543,"x_min":34,"x_max":475,"o":"m 305 678 l 475 678 l 475 543 l 305 543 l 305 -34 q 68 -271 305 -271 l 34 -271 l 34 -136 l 68 -136 q 170 -34 170 -136 l 170 543 l 68 543 l 68 678 l 170 678 l 170 712 q 407 949 170 949 l 475 949 l 475 814 l 407 814 q 305 712 305 814 l 305 678 z "},"ˆ":{"ha":543,"x_min":68,"x_max":475,"o":"m 190 949 l 353 949 l 475 746 l 359 746 l 271 882 l 183 746 l 68 746 l 190 949 z "},"ˇ":{"ha":543,"x_min":68,"x_max":475,"o":"m 68 949 l 183 949 l 271 814 l 359 949 l 475 949 l 353 746 l 190 746 l 68 949 z "},"˘":{"ha":543,"x_min":68,"x_max":475,"o":"m 68 949 l 170 949 q 271 848 170 848 q 373 949 373 848 l 475 949 q 271 746 475 746 q 68 949 68 746 z "},"˙":{"ha":271,"x_min":68,"x_max":203,"o":"m 68 746 l 68 882 l 203 882 l 203 746 l 68 746 z "},"˚":{"ha":420,"x_min":68,"x_max":353,"o":"m 353 882 q 311 781 353 823 q 210 739 269 739 q 110 781 151 739 q 68 882 68 823 q 110 982 68 941 q 210 1024 151 1024 q 311 982 269 1024 q 353 882 353 941 m 210 943 q 167 925 185 943 q 149 882 149 907 q 167 839 149 857 q 210 821 185 821 q 253 839 235 821 q 271 882 271 857 q 253 925 271 907 q 210 943 235 943 z "},"˛":{"ha":373,"x_min":68,"x_max":305,"o":"m 203 -68 q 156 -142 156 -109 q 197 -176 156 -176 q 305 -149 251 -176 l 305 -237 q 197 -258 251 -258 q 68 -156 68 -258 q 136 -68 68 -102 l 203 -68 z "},"˜":{"ha":637,"x_min":68,"x_max":570,"o":"m 68 746 q 197 916 68 916 q 319 882 264 916 q 434 848 373 848 q 481 916 481 848 l 570 916 q 441 746 570 746 q 319 780 373 746 q 203 814 264 814 q 156 746 156 814 l 68 746 z "},"˝":{"ha":543,"x_min":68,"x_max":475,"o":"m 271 949 l 203 746 l 68 746 l 136 949 l 271 949 m 475 949 l 407 746 l 271 746 l 339 949 l 475 949 z "},"–":{"ha":543,"x_min":68,"x_max":475,"o":"m 475 543 l 475 407 l 68 407 l 68 543 l 475 543 z "},"—":{"ha":678,"x_min":68,"x_max":610,"o":"m 610 543 l 610 407 l 68 407 l 68 543 l 610 543 z "},"‘":{"ha":339,"x_min":68,"x_max":271,"o":"m 203 949 l 271 746 l 136 746 l 68 949 l 203 949 z "},"’":{"ha":339,"x_min":68,"x_max":271,"o":"m 271 949 l 203 746 l 68 746 l 136 949 l 271 949 z "},"‚":{"ha":339,"x_min":68,"x_max":271,"o":"m 271 136 l 203 -68 l 68 -68 l 136 136 l 271 136 z "},"“":{"ha":543,"x_min":68,"x_max":475,"o":"m 407 949 l 475 746 l 339 746 l 271 949 l 407 949 m 203 949 l 271 746 l 136 746 l 68 949 l 203 949 z "},"”":{"ha":543,"x_min":68,"x_max":475,"o":"m 271 949 l 203 746 l 68 746 l 136 949 l 271 949 m 475 949 l 407 746 l 271 746 l 339 949 l 475 949 z "},"„":{"ha":543,"x_min":68,"x_max":475,"o":"m 271 136 l 203 -68 l 68 -68 l 136 136 l 271 136 m 475 136 l 407 -68 l 271 -68 l 339 136 l 475 136 z "},"†":{"ha":746,"x_min":68,"x_max":678,"o":"m 678 610 l 441 610 l 441 0 l 305 0 l 305 610 l 68 610 l 68 746 l 305 746 l 305 949 l 441 949 l 441 746 l 678 746 l 678 610 z "},"‡":{"ha":746,"x_min":68,"x_max":678,"o":"m 678 203 l 441 203 l 441 0 l 305 0 l 305 203 l 68 203 l 68 339 l 305 339 l 305 610 l 68 610 l 68 746 l 305 746 l 305 949 l 441 949 l 441 746 l 678 746 l 678 610 l 441 610 l 441 339 l 678 339 l 678 203 z "},"•":{"ha":339,"x_min":68,"x_max":271,"o":"m 271 610 l 271 407 l 68 407 l 68 610 l 271 610 z "},"…":{"ha":814,"x_min":68,"x_max":746,"o":"m 68 0 l 68 136 l 203 136 l 203 0 l 68 0 m 339 0 l 339 136 l 475 136 l 475 0 l 339 0 m 610 0 l 610 136 l 746 136 l 746 0 l 610 0 z "},"‰":{"ha":1831,"x_min":68,"x_max":1763,"o":"m 271 407 q 68 610 68 407 l 68 746 q 271 949 68 949 l 339 949 q 543 746 543 949 l 543 610 q 339 407 543 407 l 271 407 m 1221 203 q 1017 0 1221 0 l 949 0 q 746 203 746 0 l 746 339 q 949 543 746 543 l 1017 543 q 1221 339 1221 543 l 1221 203 m 203 610 q 271 543 203 543 l 339 543 q 407 610 407 543 l 407 746 q 339 814 407 814 l 271 814 q 203 746 203 814 l 203 610 m 882 203 q 949 136 882 136 l 1017 136 q 1085 203 1085 136 l 1085 339 q 1017 407 1085 407 l 949 407 q 882 339 882 407 l 882 203 m 339 0 l 807 949 l 949 949 l 481 0 l 339 0 m 1763 203 q 1560 0 1763 0 l 1492 0 q 1289 203 1289 0 l 1289 339 q 1492 543 1289 543 l 1560 543 q 1763 339 1763 543 l 1763 203 m 1424 203 q 1492 136 1424 136 l 1560 136 q 1628 203 1628 136 l 1628 339 q 1560 407 1628 407 l 1492 407 q 1424 339 1424 407 l 1424 203 z "},"‹":{"ha":475,"x_min":68,"x_max":407,"o":"m 68 441 l 258 746 l 407 746 l 217 441 l 407 136 l 258 136 l 68 441 z "},"›":{"ha":475,"x_min":68,"x_max":407,"o":"m 217 136 l 68 136 l 258 441 l 68 746 l 217 746 l 407 441 l 217 136 z "},"€":{"ha":746,"x_min":68,"x_max":678,"o":"m 305 529 l 305 420 l 563 420 l 525 305 l 305 305 l 305 237 q 407 136 305 136 l 678 136 l 678 0 l 407 0 q 170 237 170 0 l 170 305 l 68 305 l 68 420 l 170 420 l 170 529 l 68 529 l 68 644 l 170 644 l 170 712 q 407 949 170 949 l 678 949 l 678 814 l 407 814 q 305 712 305 814 l 305 644 l 627 644 l 590 529 l 305 529 z "},"™":{"ha":983,"x_min":68,"x_max":916,"o":"m 576 949 l 678 712 l 780 949 l 916 949 l 916 543 l 814 543 l 814 780 l 712 543 l 644 543 l 543 780 l 543 543 l 441 543 l 441 949 l 576 949 m 373 949 l 373 848 l 271 848 l 271 543 l 170 543 l 170 848 l 68 848 l 68 949 l 373 949 z "}}}
